<mxfile host="app.diagrams.net" modified="2024-03-13T14:29:09.808Z" agent="Mozilla/5.0 (Macintosh; Intel Mac OS X 10_15_7) AppleWebKit/537.36 (KHTML, like Gecko) Chrome/121.0.0.0 Safari/537.36" etag="V3yS-juUG0XveWczRZ3Y" version="24.0.5" type="device">
  <diagram name="Page-1" id="uVnovDqNGtRdmhvVGSVU">
    <mxGraphModel dx="1383" dy="777" grid="1" gridSize="10" guides="1" tooltips="1" connect="1" arrows="1" fold="1" page="1" pageScale="1" pageWidth="2336" pageHeight="1654" math="0" shadow="0">
      <root>
        <mxCell id="0" />
        <mxCell id="1" parent="0" />
        <mxCell id="W2U-u5aYHxPbp0ikBnnV-9" value="" style="rounded=1;whiteSpace=wrap;html=1;movable=1;resizable=1;rotatable=1;deletable=1;editable=1;locked=0;connectable=1;" vertex="1" parent="1">
          <mxGeometry x="381.5" y="1305" width="330" height="300" as="geometry" />
        </mxCell>
        <mxCell id="W2U-u5aYHxPbp0ikBnnV-7" value="" style="rounded=1;whiteSpace=wrap;html=1;movable=0;resizable=0;rotatable=0;deletable=0;editable=0;locked=1;connectable=0;" vertex="1" parent="1">
          <mxGeometry x="571.5" y="619.9999999999999" width="330" height="300" as="geometry" />
        </mxCell>
        <mxCell id="W2U-u5aYHxPbp0ikBnnV-6" value="" style="rounded=1;whiteSpace=wrap;html=1;movable=1;resizable=1;rotatable=1;deletable=1;editable=1;locked=0;connectable=1;" vertex="1" parent="1">
          <mxGeometry x="380" y="944.1199999999999" width="330" height="300" as="geometry" />
        </mxCell>
        <mxCell id="W2U-u5aYHxPbp0ikBnnV-5" value="" style="rounded=1;whiteSpace=wrap;html=1;movable=0;resizable=0;rotatable=0;deletable=0;editable=0;locked=1;connectable=0;" vertex="1" parent="1">
          <mxGeometry x="166.5" width="643.5" height="600" as="geometry" />
        </mxCell>
        <mxCell id="W2U-u5aYHxPbp0ikBnnV-4" value="" style="rounded=1;whiteSpace=wrap;html=1;movable=0;resizable=0;rotatable=0;deletable=0;editable=0;locked=1;connectable=0;" vertex="1" parent="1">
          <mxGeometry x="11" y="610" width="499" height="320" as="geometry" />
        </mxCell>
        <mxCell id="W2U-u5aYHxPbp0ikBnnV-3" value="" style="rounded=1;whiteSpace=wrap;html=1;movable=0;resizable=0;rotatable=0;deletable=0;editable=0;locked=1;connectable=0;" vertex="1" parent="1">
          <mxGeometry x="10" y="940" width="340" height="300" as="geometry" />
        </mxCell>
        <mxCell id="W2U-u5aYHxPbp0ikBnnV-2" value="" style="rounded=1;whiteSpace=wrap;html=1;movable=0;resizable=0;rotatable=0;deletable=0;editable=0;locked=1;connectable=0;" vertex="1" parent="1">
          <mxGeometry x="11" y="1270" width="339" height="370" as="geometry" />
        </mxCell>
        <mxCell id="0yv5yR20UiGf7A1qQNw7-8" style="edgeStyle=orthogonalEdgeStyle;rounded=0;orthogonalLoop=1;jettySize=auto;html=1;entryX=0.5;entryY=0;entryDx=0;entryDy=0;exitX=0.25;exitY=1;exitDx=0;exitDy=0;" parent="1" source="0yv5yR20UiGf7A1qQNw7-1" target="0yv5yR20UiGf7A1qQNw7-5" edge="1">
          <mxGeometry relative="1" as="geometry" />
        </mxCell>
        <mxCell id="MktRiLjFBEHnHrvTIdCx-10" style="edgeStyle=orthogonalEdgeStyle;rounded=0;orthogonalLoop=1;jettySize=auto;html=1;exitX=0.5;exitY=1;exitDx=0;exitDy=0;entryX=0;entryY=0.25;entryDx=0;entryDy=0;strokeColor=#97D077;" parent="1" source="0yv5yR20UiGf7A1qQNw7-1" target="MktRiLjFBEHnHrvTIdCx-4" edge="1">
          <mxGeometry relative="1" as="geometry">
            <Array as="points">
              <mxPoint x="320" y="280" />
              <mxPoint x="410" y="280" />
              <mxPoint x="410" y="343" />
            </Array>
          </mxGeometry>
        </mxCell>
        <mxCell id="0yv5yR20UiGf7A1qQNw7-1" value="webapp" style="rounded=1;whiteSpace=wrap;html=1;fillColor=#ffe6cc;strokeColor=#d79b00;" parent="1" vertex="1">
          <mxGeometry x="260" y="170" width="120" height="60" as="geometry" />
        </mxCell>
        <mxCell id="0yv5yR20UiGf7A1qQNw7-7" style="edgeStyle=orthogonalEdgeStyle;rounded=0;orthogonalLoop=1;jettySize=auto;html=1;entryX=0.5;entryY=0;entryDx=0;entryDy=0;exitX=0.25;exitY=1;exitDx=0;exitDy=0;" parent="1" source="0yv5yR20UiGf7A1qQNw7-2" target="0yv5yR20UiGf7A1qQNw7-5" edge="1">
          <mxGeometry relative="1" as="geometry">
            <Array as="points">
              <mxPoint x="440" y="295" />
              <mxPoint x="370" y="295" />
            </Array>
          </mxGeometry>
        </mxCell>
        <mxCell id="0yv5yR20UiGf7A1qQNw7-2" value="CLI" style="rounded=1;whiteSpace=wrap;html=1;fillColor=#ffe6cc;strokeColor=#d79b00;" parent="1" vertex="1">
          <mxGeometry x="410" y="170" width="120" height="60" as="geometry" />
        </mxCell>
        <mxCell id="0yv5yR20UiGf7A1qQNw7-6" value="" style="edgeStyle=orthogonalEdgeStyle;rounded=0;orthogonalLoop=1;jettySize=auto;html=1;" parent="1" source="0yv5yR20UiGf7A1qQNw7-3" target="0yv5yR20UiGf7A1qQNw7-5" edge="1">
          <mxGeometry relative="1" as="geometry" />
        </mxCell>
        <mxCell id="MktRiLjFBEHnHrvTIdCx-13" style="edgeStyle=orthogonalEdgeStyle;rounded=0;orthogonalLoop=1;jettySize=auto;html=1;exitX=1;exitY=0.25;exitDx=0;exitDy=0;entryX=0;entryY=0.75;entryDx=0;entryDy=0;strokeColor=#97D077;" parent="1" source="0yv5yR20UiGf7A1qQNw7-3" target="MktRiLjFBEHnHrvTIdCx-4" edge="1">
          <mxGeometry relative="1" as="geometry">
            <Array as="points">
              <mxPoint x="450" y="517" />
              <mxPoint x="450" y="438" />
            </Array>
          </mxGeometry>
        </mxCell>
        <mxCell id="0yv5yR20UiGf7A1qQNw7-3" value="database" style="rounded=1;whiteSpace=wrap;html=1;fillColor=#e1d5e7;strokeColor=#9673a6;" parent="1" vertex="1">
          <mxGeometry x="310" y="501.47" width="120" height="60" as="geometry" />
        </mxCell>
        <mxCell id="MktRiLjFBEHnHrvTIdCx-12" style="edgeStyle=orthogonalEdgeStyle;rounded=0;orthogonalLoop=1;jettySize=auto;html=1;entryX=0;entryY=0.5;entryDx=0;entryDy=0;strokeColor=#97D077;" parent="1" source="0yv5yR20UiGf7A1qQNw7-5" target="MktRiLjFBEHnHrvTIdCx-4" edge="1">
          <mxGeometry relative="1" as="geometry" />
        </mxCell>
        <mxCell id="0yv5yR20UiGf7A1qQNw7-5" value="business" style="whiteSpace=wrap;html=1;fillColor=#dae8fc;strokeColor=#6c8ebf;rounded=1;" parent="1" vertex="1">
          <mxGeometry x="300" y="360.47" width="140" height="60" as="geometry" />
        </mxCell>
        <mxCell id="0yv5yR20UiGf7A1qQNw7-10" value="CURRENT" style="text;html=1;align=center;verticalAlign=middle;resizable=0;points=[];autosize=1;strokeColor=none;fillColor=none;" parent="1" vertex="1">
          <mxGeometry x="450" y="9.99999999999999" width="80" height="30" as="geometry" />
        </mxCell>
        <mxCell id="0yv5yR20UiGf7A1qQNw7-11" value="api" style="rounded=1;whiteSpace=wrap;html=1;fillColor=#fff2cc;strokeColor=#d6b656;" parent="1" vertex="1">
          <mxGeometry x="304" y="396.47" width="50" height="20" as="geometry" />
        </mxCell>
        <mxCell id="0yv5yR20UiGf7A1qQNw7-32" style="edgeStyle=orthogonalEdgeStyle;rounded=0;orthogonalLoop=1;jettySize=auto;html=1;" parent="1" source="0yv5yR20UiGf7A1qQNw7-14" target="0yv5yR20UiGf7A1qQNw7-31" edge="1">
          <mxGeometry relative="1" as="geometry" />
        </mxCell>
        <mxCell id="0yv5yR20UiGf7A1qQNw7-36" style="edgeStyle=orthogonalEdgeStyle;rounded=0;orthogonalLoop=1;jettySize=auto;html=1;strokeColor=#97D077;" parent="1" source="0yv5yR20UiGf7A1qQNw7-14" target="0yv5yR20UiGf7A1qQNw7-27" edge="1">
          <mxGeometry relative="1" as="geometry">
            <mxPoint x="1850" y="356.97" as="targetPoint" />
            <Array as="points">
              <mxPoint x="1680" y="269.97" />
              <mxPoint x="1830" y="269.97" />
              <mxPoint x="1830" y="399.97" />
            </Array>
          </mxGeometry>
        </mxCell>
        <mxCell id="0yv5yR20UiGf7A1qQNw7-14" value="webapp" style="rounded=1;whiteSpace=wrap;html=1;fillColor=#ffe6cc;strokeColor=#d79b00;" parent="1" vertex="1">
          <mxGeometry x="1580" y="190.97000000000006" width="120" height="60" as="geometry" />
        </mxCell>
        <mxCell id="0yv5yR20UiGf7A1qQNw7-33" style="edgeStyle=orthogonalEdgeStyle;rounded=0;orthogonalLoop=1;jettySize=auto;html=1;" parent="1" source="0yv5yR20UiGf7A1qQNw7-16" target="0yv5yR20UiGf7A1qQNw7-31" edge="1">
          <mxGeometry relative="1" as="geometry" />
        </mxCell>
        <mxCell id="0yv5yR20UiGf7A1qQNw7-35" style="edgeStyle=orthogonalEdgeStyle;rounded=0;orthogonalLoop=1;jettySize=auto;html=1;entryX=0;entryY=0.5;entryDx=0;entryDy=0;strokeColor=#97D077;" parent="1" source="0yv5yR20UiGf7A1qQNw7-16" target="0yv5yR20UiGf7A1qQNw7-27" edge="1">
          <mxGeometry relative="1" as="geometry">
            <mxPoint x="1850" y="356.97" as="targetPoint" />
            <Array as="points">
              <mxPoint x="1830" y="399.97" />
              <mxPoint x="1880" y="399.97" />
            </Array>
          </mxGeometry>
        </mxCell>
        <mxCell id="0yv5yR20UiGf7A1qQNw7-16" value="CLI" style="rounded=1;whiteSpace=wrap;html=1;fillColor=#ffe6cc;strokeColor=#d79b00;" parent="1" vertex="1">
          <mxGeometry x="1730" y="190.97000000000006" width="120" height="60" as="geometry" />
        </mxCell>
        <mxCell id="0yv5yR20UiGf7A1qQNw7-17" value="" style="edgeStyle=orthogonalEdgeStyle;rounded=0;orthogonalLoop=1;jettySize=auto;html=1;" parent="1" source="0yv5yR20UiGf7A1qQNw7-18" target="0yv5yR20UiGf7A1qQNw7-19" edge="1">
          <mxGeometry relative="1" as="geometry" />
        </mxCell>
        <mxCell id="0yv5yR20UiGf7A1qQNw7-38" style="edgeStyle=orthogonalEdgeStyle;rounded=0;orthogonalLoop=1;jettySize=auto;html=1;strokeColor=#97D077;" parent="1" source="0yv5yR20UiGf7A1qQNw7-18" target="0yv5yR20UiGf7A1qQNw7-27" edge="1">
          <mxGeometry relative="1" as="geometry">
            <mxPoint x="1850" y="356.97" as="targetPoint" />
            <Array as="points">
              <mxPoint x="1830" y="550.97" />
              <mxPoint x="1830" y="399.97" />
            </Array>
          </mxGeometry>
        </mxCell>
        <mxCell id="0yv5yR20UiGf7A1qQNw7-18" value="(mongo)database" style="rounded=1;whiteSpace=wrap;html=1;fillColor=#e1d5e7;strokeColor=#9673a6;" parent="1" vertex="1">
          <mxGeometry x="1660" y="520.97" width="120" height="60" as="geometry" />
        </mxCell>
        <mxCell id="0yv5yR20UiGf7A1qQNw7-34" style="edgeStyle=orthogonalEdgeStyle;rounded=0;orthogonalLoop=1;jettySize=auto;html=1;" parent="1" source="0yv5yR20UiGf7A1qQNw7-19" target="0yv5yR20UiGf7A1qQNw7-31" edge="1">
          <mxGeometry relative="1" as="geometry" />
        </mxCell>
        <mxCell id="0yv5yR20UiGf7A1qQNw7-19" value="business" style="whiteSpace=wrap;html=1;fillColor=#dae8fc;strokeColor=#6c8ebf;rounded=1;" parent="1" vertex="1">
          <mxGeometry x="1660" y="410.97" width="120" height="60" as="geometry" />
        </mxCell>
        <mxCell id="0yv5yR20UiGf7A1qQNw7-21" value="Future" style="text;html=1;align=center;verticalAlign=middle;resizable=0;points=[];autosize=1;strokeColor=none;fillColor=none;" parent="1" vertex="1">
          <mxGeometry x="1770" y="10" width="60" height="30" as="geometry" />
        </mxCell>
        <mxCell id="0yv5yR20UiGf7A1qQNw7-26" style="edgeStyle=orthogonalEdgeStyle;rounded=0;orthogonalLoop=1;jettySize=auto;html=1;entryX=0.5;entryY=0;entryDx=0;entryDy=0;" parent="1" source="0yv5yR20UiGf7A1qQNw7-25" target="0yv5yR20UiGf7A1qQNw7-14" edge="1">
          <mxGeometry relative="1" as="geometry">
            <Array as="points">
              <mxPoint x="2040" y="169.97000000000006" />
              <mxPoint x="1640" y="169.97000000000006" />
            </Array>
          </mxGeometry>
        </mxCell>
        <mxCell id="0yv5yR20UiGf7A1qQNw7-28" style="edgeStyle=orthogonalEdgeStyle;rounded=0;orthogonalLoop=1;jettySize=auto;html=1;" parent="1" source="0yv5yR20UiGf7A1qQNw7-25" target="0yv5yR20UiGf7A1qQNw7-27" edge="1">
          <mxGeometry relative="1" as="geometry" />
        </mxCell>
        <mxCell id="0yv5yR20UiGf7A1qQNw7-29" style="edgeStyle=orthogonalEdgeStyle;rounded=0;orthogonalLoop=1;jettySize=auto;html=1;entryX=0.5;entryY=0;entryDx=0;entryDy=0;" parent="1" source="0yv5yR20UiGf7A1qQNw7-25" target="0yv5yR20UiGf7A1qQNw7-16" edge="1">
          <mxGeometry relative="1" as="geometry">
            <Array as="points">
              <mxPoint x="2040" y="169.97000000000006" />
              <mxPoint x="1790" y="169.97000000000006" />
            </Array>
          </mxGeometry>
        </mxCell>
        <mxCell id="0yv5yR20UiGf7A1qQNw7-25" value="main" style="rounded=1;whiteSpace=wrap;html=1;fillColor=#647687;strokeColor=#314354;fontColor=#ffffff;" parent="1" vertex="1">
          <mxGeometry x="1980" y="375.97" width="120" height="60" as="geometry" />
        </mxCell>
        <mxCell id="0yv5yR20UiGf7A1qQNw7-27" value="vocabulary" style="rounded=1;whiteSpace=wrap;html=1;fillColor=#d5e8d4;strokeColor=#82b366;" parent="1" vertex="1">
          <mxGeometry x="1880" y="310.97" width="70" height="190" as="geometry" />
        </mxCell>
        <mxCell id="0yv5yR20UiGf7A1qQNw7-31" value="app API" style="whiteSpace=wrap;html=1;fillColor=#f8cecc;strokeColor=#b85450;rounded=1;" parent="1" vertex="1">
          <mxGeometry x="1660" y="310.97" width="120" height="60" as="geometry" />
        </mxCell>
        <mxCell id="0yv5yR20UiGf7A1qQNw7-39" style="edgeStyle=orthogonalEdgeStyle;rounded=0;orthogonalLoop=1;jettySize=auto;html=1;exitX=1;exitY=0.5;exitDx=0;exitDy=0;entryX=0;entryY=0.468;entryDx=0;entryDy=0;entryPerimeter=0;strokeColor=#97D077;" parent="1" source="0yv5yR20UiGf7A1qQNw7-19" target="0yv5yR20UiGf7A1qQNw7-27" edge="1">
          <mxGeometry relative="1" as="geometry" />
        </mxCell>
        <mxCell id="MktRiLjFBEHnHrvTIdCx-2" style="edgeStyle=orthogonalEdgeStyle;rounded=0;orthogonalLoop=1;jettySize=auto;html=1;entryX=0.25;entryY=0;entryDx=0;entryDy=0;dashed=1;" parent="1" source="0yv5yR20UiGf7A1qQNw7-40" target="0yv5yR20UiGf7A1qQNw7-14" edge="1">
          <mxGeometry relative="1" as="geometry">
            <Array as="points">
              <mxPoint x="1610" y="130.00000000000003" />
              <mxPoint x="1610" y="130.00000000000003" />
            </Array>
          </mxGeometry>
        </mxCell>
        <mxCell id="0yv5yR20UiGf7A1qQNw7-40" value="Web UI" style="rounded=0;whiteSpace=wrap;html=1;fillColor=#f5f5f5;strokeColor=#666666;fontColor=#333333;" parent="1" vertex="1">
          <mxGeometry x="1591" y="60.00000000000003" width="98" height="49" as="geometry" />
        </mxCell>
        <mxCell id="0yv5yR20UiGf7A1qQNw7-42" value="domain" style="rounded=1;whiteSpace=wrap;html=1;fillColor=#fff2cc;strokeColor=#d6b656;" parent="1" vertex="1">
          <mxGeometry x="1680" y="450.97" width="50" height="20" as="geometry" />
        </mxCell>
        <mxCell id="0yv5yR20UiGf7A1qQNw7-43" value="use cases" style="rounded=1;whiteSpace=wrap;html=1;fillColor=#fff2cc;strokeColor=#d6b656;" parent="1" vertex="1">
          <mxGeometry x="1680" y="401" width="60" height="20" as="geometry" />
        </mxCell>
        <mxCell id="0yv5yR20UiGf7A1qQNw7-46" value="" style="edgeStyle=orthogonalEdgeStyle;rounded=0;orthogonalLoop=1;jettySize=auto;html=1;" parent="1" source="0yv5yR20UiGf7A1qQNw7-44" target="0yv5yR20UiGf7A1qQNw7-45" edge="1">
          <mxGeometry relative="1" as="geometry" />
        </mxCell>
        <mxCell id="0yv5yR20UiGf7A1qQNw7-44" value="use cases" style="rounded=1;whiteSpace=wrap;html=1;fillColor=#fff2cc;strokeColor=#d6b656;" parent="1" vertex="1">
          <mxGeometry x="1980" y="600" width="60" height="20" as="geometry" />
        </mxCell>
        <mxCell id="0yv5yR20UiGf7A1qQNw7-48" value="" style="edgeStyle=orthogonalEdgeStyle;rounded=0;orthogonalLoop=1;jettySize=auto;html=1;" parent="1" source="0yv5yR20UiGf7A1qQNw7-45" target="0yv5yR20UiGf7A1qQNw7-47" edge="1">
          <mxGeometry relative="1" as="geometry" />
        </mxCell>
        <mxCell id="0yv5yR20UiGf7A1qQNw7-45" value="&quot;controller&quot;" style="rounded=1;whiteSpace=wrap;html=1;fillColor=#fff2cc;strokeColor=#d6b656;" parent="1" vertex="1">
          <mxGeometry x="2120" y="600" width="60" height="20" as="geometry" />
        </mxCell>
        <mxCell id="0yv5yR20UiGf7A1qQNw7-47" value="land" style="rounded=1;whiteSpace=wrap;html=1;fillColor=#fff2cc;strokeColor=#d6b656;" parent="1" vertex="1">
          <mxGeometry x="2260" y="600" width="60" height="20" as="geometry" />
        </mxCell>
        <mxCell id="0yv5yR20UiGf7A1qQNw7-49" value="move" style="rounded=1;whiteSpace=wrap;html=1;fillColor=#fff2cc;strokeColor=#d6b656;" parent="1" vertex="1">
          <mxGeometry x="2260" y="640" width="60" height="20" as="geometry" />
        </mxCell>
        <mxCell id="0yv5yR20UiGf7A1qQNw7-50" value="inMem module?" style="rounded=1;whiteSpace=wrap;html=1;fillColor=#e1d5e7;strokeColor=#9673a6;dashed=1;" parent="1" vertex="1">
          <mxGeometry x="1510" y="520.97" width="120" height="60" as="geometry" />
        </mxCell>
        <mxCell id="0yv5yR20UiGf7A1qQNw7-51" style="edgeStyle=orthogonalEdgeStyle;rounded=0;orthogonalLoop=1;jettySize=auto;html=1;entryX=0.123;entryY=1.032;entryDx=0;entryDy=0;entryPerimeter=0;" parent="1" source="0yv5yR20UiGf7A1qQNw7-50" target="0yv5yR20UiGf7A1qQNw7-19" edge="1">
          <mxGeometry relative="1" as="geometry">
            <Array as="points">
              <mxPoint x="1570" y="490" />
              <mxPoint x="1675" y="490" />
            </Array>
          </mxGeometry>
        </mxCell>
        <mxCell id="MktRiLjFBEHnHrvTIdCx-1" style="edgeStyle=orthogonalEdgeStyle;rounded=0;orthogonalLoop=1;jettySize=auto;html=1;dashed=1;" parent="1" source="0yv5yR20UiGf7A1qQNw7-52" edge="1">
          <mxGeometry relative="1" as="geometry">
            <mxPoint x="290" y="170" as="targetPoint" />
            <Array as="points">
              <mxPoint x="290" y="170" />
            </Array>
          </mxGeometry>
        </mxCell>
        <mxCell id="0yv5yR20UiGf7A1qQNw7-52" value="Web UI" style="rounded=0;whiteSpace=wrap;html=1;fillColor=#f5f5f5;strokeColor=#666666;fontColor=#333333;" parent="1" vertex="1">
          <mxGeometry x="271" y="39.99999999999999" width="98" height="49" as="geometry" />
        </mxCell>
        <mxCell id="MktRiLjFBEHnHrvTIdCx-5" style="edgeStyle=orthogonalEdgeStyle;rounded=0;orthogonalLoop=1;jettySize=auto;html=1;exitX=0.5;exitY=0;exitDx=0;exitDy=0;entryX=0.75;entryY=0;entryDx=0;entryDy=0;" parent="1" source="MktRiLjFBEHnHrvTIdCx-3" target="0yv5yR20UiGf7A1qQNw7-1" edge="1">
          <mxGeometry relative="1" as="geometry">
            <Array as="points">
              <mxPoint x="665" y="140" />
              <mxPoint x="350" y="140" />
            </Array>
          </mxGeometry>
        </mxCell>
        <mxCell id="MktRiLjFBEHnHrvTIdCx-6" style="edgeStyle=orthogonalEdgeStyle;rounded=0;orthogonalLoop=1;jettySize=auto;html=1;exitX=0.25;exitY=0;exitDx=0;exitDy=0;entryX=0.5;entryY=0;entryDx=0;entryDy=0;" parent="1" source="MktRiLjFBEHnHrvTIdCx-3" target="0yv5yR20UiGf7A1qQNw7-2" edge="1">
          <mxGeometry relative="1" as="geometry" />
        </mxCell>
        <mxCell id="MktRiLjFBEHnHrvTIdCx-7" style="edgeStyle=orthogonalEdgeStyle;rounded=0;orthogonalLoop=1;jettySize=auto;html=1;entryX=1;entryY=0.5;entryDx=0;entryDy=0;" parent="1" source="MktRiLjFBEHnHrvTIdCx-3" target="MktRiLjFBEHnHrvTIdCx-4" edge="1">
          <mxGeometry relative="1" as="geometry" />
        </mxCell>
        <mxCell id="MktRiLjFBEHnHrvTIdCx-9" style="edgeStyle=orthogonalEdgeStyle;rounded=0;orthogonalLoop=1;jettySize=auto;html=1;exitX=0.25;exitY=1;exitDx=0;exitDy=0;entryX=1;entryY=0.75;entryDx=0;entryDy=0;" parent="1" source="MktRiLjFBEHnHrvTIdCx-3" target="0yv5yR20UiGf7A1qQNw7-5" edge="1">
          <mxGeometry relative="1" as="geometry">
            <Array as="points">
              <mxPoint x="638" y="520" />
              <mxPoint x="470" y="520" />
              <mxPoint x="470" y="406" />
            </Array>
          </mxGeometry>
        </mxCell>
        <mxCell id="MktRiLjFBEHnHrvTIdCx-3" value="main" style="rounded=1;whiteSpace=wrap;html=1;fillColor=#647687;strokeColor=#314354;fontColor=#ffffff;" parent="1" vertex="1">
          <mxGeometry x="610" y="360.47" width="110" height="60" as="geometry" />
        </mxCell>
        <mxCell id="MktRiLjFBEHnHrvTIdCx-4" value="vocabulary" style="rounded=1;whiteSpace=wrap;html=1;fillColor=#d5e8d4;strokeColor=#82b366;" parent="1" vertex="1">
          <mxGeometry x="500" y="295.47" width="70" height="190" as="geometry" />
        </mxCell>
        <mxCell id="MktRiLjFBEHnHrvTIdCx-8" style="edgeStyle=orthogonalEdgeStyle;rounded=0;orthogonalLoop=1;jettySize=auto;html=1;exitX=0.5;exitY=1;exitDx=0;exitDy=0;entryX=0.997;entryY=0.575;entryDx=0;entryDy=0;entryPerimeter=0;" parent="1" source="MktRiLjFBEHnHrvTIdCx-3" target="0yv5yR20UiGf7A1qQNw7-3" edge="1">
          <mxGeometry relative="1" as="geometry" />
        </mxCell>
        <mxCell id="MktRiLjFBEHnHrvTIdCx-11" style="edgeStyle=orthogonalEdgeStyle;rounded=0;orthogonalLoop=1;jettySize=auto;html=1;entryX=0.001;entryY=0.118;entryDx=0;entryDy=0;entryPerimeter=0;strokeColor=#97D077;" parent="1" source="0yv5yR20UiGf7A1qQNw7-2" target="MktRiLjFBEHnHrvTIdCx-4" edge="1">
          <mxGeometry relative="1" as="geometry" />
        </mxCell>
        <mxCell id="MktRiLjFBEHnHrvTIdCx-21" style="rounded=0;orthogonalLoop=1;jettySize=auto;html=1;exitX=0.25;exitY=1;exitDx=0;exitDy=0;entryX=0.5;entryY=0;entryDx=0;entryDy=0;" parent="1" source="MktRiLjFBEHnHrvTIdCx-15" target="MktRiLjFBEHnHrvTIdCx-17" edge="1">
          <mxGeometry relative="1" as="geometry" />
        </mxCell>
        <mxCell id="MktRiLjFBEHnHrvTIdCx-22" style="rounded=0;orthogonalLoop=1;jettySize=auto;html=1;exitX=0.25;exitY=1;exitDx=0;exitDy=0;entryX=0.5;entryY=0;entryDx=0;entryDy=0;" parent="1" source="MktRiLjFBEHnHrvTIdCx-15" target="MktRiLjFBEHnHrvTIdCx-18" edge="1">
          <mxGeometry relative="1" as="geometry" />
        </mxCell>
        <mxCell id="MktRiLjFBEHnHrvTIdCx-23" style="edgeStyle=orthogonalEdgeStyle;rounded=0;orthogonalLoop=1;jettySize=auto;html=1;exitX=0.5;exitY=1;exitDx=0;exitDy=0;entryX=0.5;entryY=0;entryDx=0;entryDy=0;" parent="1" source="MktRiLjFBEHnHrvTIdCx-15" target="MktRiLjFBEHnHrvTIdCx-16" edge="1">
          <mxGeometry relative="1" as="geometry" />
        </mxCell>
        <mxCell id="MktRiLjFBEHnHrvTIdCx-24" style="rounded=0;orthogonalLoop=1;jettySize=auto;html=1;exitX=0.75;exitY=1;exitDx=0;exitDy=0;entryX=0.5;entryY=0;entryDx=0;entryDy=0;" parent="1" source="MktRiLjFBEHnHrvTIdCx-15" target="MktRiLjFBEHnHrvTIdCx-19" edge="1">
          <mxGeometry relative="1" as="geometry" />
        </mxCell>
        <mxCell id="MktRiLjFBEHnHrvTIdCx-25" style="rounded=0;orthogonalLoop=1;jettySize=auto;html=1;exitX=0.75;exitY=1;exitDx=0;exitDy=0;entryX=0.5;entryY=0;entryDx=0;entryDy=0;" parent="1" source="MktRiLjFBEHnHrvTIdCx-15" target="MktRiLjFBEHnHrvTIdCx-20" edge="1">
          <mxGeometry relative="1" as="geometry" />
        </mxCell>
        <mxCell id="MktRiLjFBEHnHrvTIdCx-35" style="rounded=0;orthogonalLoop=1;jettySize=auto;html=1;entryX=0.75;entryY=1;entryDx=0;entryDy=0;" parent="1" source="MktRiLjFBEHnHrvTIdCx-15" target="MktRiLjFBEHnHrvTIdCx-27" edge="1">
          <mxGeometry relative="1" as="geometry" />
        </mxCell>
        <mxCell id="MktRiLjFBEHnHrvTIdCx-53" style="rounded=0;orthogonalLoop=1;jettySize=auto;html=1;exitX=0.75;exitY=0;exitDx=0;exitDy=0;entryX=0.25;entryY=1;entryDx=0;entryDy=0;" parent="1" source="MktRiLjFBEHnHrvTIdCx-15" target="MktRiLjFBEHnHrvTIdCx-49" edge="1">
          <mxGeometry relative="1" as="geometry" />
        </mxCell>
        <mxCell id="MktRiLjFBEHnHrvTIdCx-15" value="main" style="rounded=1;whiteSpace=wrap;html=1;fillColor=#647687;strokeColor=#314354;fontColor=#ffffff;" parent="1" vertex="1">
          <mxGeometry x="191" y="707.1400000000001" width="110" height="60" as="geometry" />
        </mxCell>
        <mxCell id="MktRiLjFBEHnHrvTIdCx-16" value="vocabulary" style="rounded=1;whiteSpace=wrap;html=1;fillColor=#d5e8d4;strokeColor=#82b366;" parent="1" vertex="1">
          <mxGeometry x="201" y="807.1400000000001" width="90" height="30" as="geometry" />
        </mxCell>
        <mxCell id="MktRiLjFBEHnHrvTIdCx-17" value="CLI" style="rounded=1;whiteSpace=wrap;html=1;fillColor=#ffe6cc;strokeColor=#d79b00;" parent="1" vertex="1">
          <mxGeometry x="21" y="867.1400000000001" width="90" height="30" as="geometry" />
        </mxCell>
        <mxCell id="MktRiLjFBEHnHrvTIdCx-18" value="webapp" style="rounded=1;whiteSpace=wrap;html=1;fillColor=#ffe6cc;strokeColor=#d79b00;" parent="1" vertex="1">
          <mxGeometry x="141" y="867.1400000000001" width="90" height="30" as="geometry" />
        </mxCell>
        <mxCell id="MktRiLjFBEHnHrvTIdCx-19" value="business" style="whiteSpace=wrap;html=1;fillColor=#dae8fc;strokeColor=#6c8ebf;rounded=1;" parent="1" vertex="1">
          <mxGeometry x="257" y="866.1700000000001" width="90" height="29.03" as="geometry" />
        </mxCell>
        <mxCell id="MktRiLjFBEHnHrvTIdCx-20" value="database" style="rounded=1;whiteSpace=wrap;html=1;fillColor=#e1d5e7;strokeColor=#9673a6;" parent="1" vertex="1">
          <mxGeometry x="387" y="866.1700000000001" width="90" height="30" as="geometry" />
        </mxCell>
        <mxCell id="MktRiLjFBEHnHrvTIdCx-30" value="" style="group" parent="1" connectable="0" vertex="1">
          <mxGeometry x="131" y="620" width="100" height="53.52999999999997" as="geometry" />
        </mxCell>
        <mxCell id="MktRiLjFBEHnHrvTIdCx-26" value="" style="sketch=0;pointerEvents=1;shadow=0;dashed=0;html=1;strokeColor=none;labelPosition=center;verticalLabelPosition=bottom;verticalAlign=top;align=center;fillColor=#505050;shape=mxgraph.mscae.oms.dependency_monitor" parent="MktRiLjFBEHnHrvTIdCx-30" vertex="1">
          <mxGeometry width="35.2" height="34.5" as="geometry" />
        </mxCell>
        <mxCell id="MktRiLjFBEHnHrvTIdCx-27" value="spring boot devtools" style="whiteSpace=wrap;html=1;fillColor=#f5f5f5;strokeColor=#666666;rounded=1;fontColor=#333333;" parent="MktRiLjFBEHnHrvTIdCx-30" vertex="1">
          <mxGeometry x="10" y="24.5" width="90" height="29.03" as="geometry" />
        </mxCell>
        <mxCell id="MktRiLjFBEHnHrvTIdCx-47" value="" style="group" parent="1" connectable="0" vertex="1">
          <mxGeometry x="269" y="620" width="100" height="53.52999999999997" as="geometry" />
        </mxCell>
        <mxCell id="MktRiLjFBEHnHrvTIdCx-48" value="" style="sketch=0;pointerEvents=1;shadow=0;dashed=0;html=1;strokeColor=none;labelPosition=center;verticalLabelPosition=bottom;verticalAlign=top;align=center;fillColor=#505050;shape=mxgraph.mscae.oms.dependency_monitor" parent="MktRiLjFBEHnHrvTIdCx-47" vertex="1">
          <mxGeometry width="35.2" height="34.5" as="geometry" />
        </mxCell>
        <mxCell id="MktRiLjFBEHnHrvTIdCx-49" value="google guava" style="whiteSpace=wrap;html=1;fillColor=#f5f5f5;strokeColor=#666666;rounded=1;fontColor=#333333;" parent="MktRiLjFBEHnHrvTIdCx-47" vertex="1">
          <mxGeometry x="10" y="24.5" width="90" height="29.03" as="geometry" />
        </mxCell>
        <mxCell id="MktRiLjFBEHnHrvTIdCx-92" style="rounded=0;orthogonalLoop=1;jettySize=auto;html=1;exitX=0.25;exitY=0;exitDx=0;exitDy=0;entryX=0.75;entryY=1;entryDx=0;entryDy=0;" parent="1" source="MktRiLjFBEHnHrvTIdCx-54" target="MktRiLjFBEHnHrvTIdCx-70" edge="1">
          <mxGeometry relative="1" as="geometry" />
        </mxCell>
        <mxCell id="MktRiLjFBEHnHrvTIdCx-101" style="rounded=0;orthogonalLoop=1;jettySize=auto;html=1;exitX=0.75;exitY=0;exitDx=0;exitDy=0;entryX=0.25;entryY=1;entryDx=0;entryDy=0;" parent="1" source="MktRiLjFBEHnHrvTIdCx-54" target="MktRiLjFBEHnHrvTIdCx-88" edge="1">
          <mxGeometry relative="1" as="geometry">
            <mxPoint x="281.5" y="1030.59" as="targetPoint" />
          </mxGeometry>
        </mxCell>
        <mxCell id="MktRiLjFBEHnHrvTIdCx-102" style="rounded=0;orthogonalLoop=1;jettySize=auto;html=1;exitX=0.5;exitY=1;exitDx=0;exitDy=0;entryX=0.5;entryY=0;entryDx=0;entryDy=0;" parent="1" source="MktRiLjFBEHnHrvTIdCx-54" target="MktRiLjFBEHnHrvTIdCx-79" edge="1">
          <mxGeometry relative="1" as="geometry" />
        </mxCell>
        <mxCell id="MktRiLjFBEHnHrvTIdCx-103" style="rounded=0;orthogonalLoop=1;jettySize=auto;html=1;exitX=0.5;exitY=1;exitDx=0;exitDy=0;entryX=0.5;entryY=0;entryDx=0;entryDy=0;" parent="1" source="MktRiLjFBEHnHrvTIdCx-54" target="MktRiLjFBEHnHrvTIdCx-58" edge="1">
          <mxGeometry relative="1" as="geometry" />
        </mxCell>
        <mxCell id="MktRiLjFBEHnHrvTIdCx-54" value="database" style="rounded=1;whiteSpace=wrap;html=1;fillColor=#e1d5e7;strokeColor=#9673a6;" parent="1" vertex="1">
          <mxGeometry x="139.5" y="1064.12" width="110" height="60" as="geometry" />
        </mxCell>
        <mxCell id="MktRiLjFBEHnHrvTIdCx-58" value="business" style="whiteSpace=wrap;html=1;fillColor=#dae8fc;strokeColor=#6c8ebf;rounded=1;" parent="1" vertex="1">
          <mxGeometry x="203.5" y="1174.12" width="90" height="29.03" as="geometry" />
        </mxCell>
        <mxCell id="MktRiLjFBEHnHrvTIdCx-68" value="" style="group" parent="1" connectable="0" vertex="1">
          <mxGeometry x="31.5" y="957.06" width="140" height="53.53" as="geometry" />
        </mxCell>
        <mxCell id="MktRiLjFBEHnHrvTIdCx-69" value="" style="sketch=0;pointerEvents=1;shadow=0;dashed=0;html=1;strokeColor=none;labelPosition=center;verticalLabelPosition=bottom;verticalAlign=top;align=center;fillColor=#505050;shape=mxgraph.mscae.oms.dependency_monitor" parent="MktRiLjFBEHnHrvTIdCx-68" vertex="1">
          <mxGeometry width="35.2" height="34.5" as="geometry" />
        </mxCell>
        <mxCell id="MktRiLjFBEHnHrvTIdCx-70" value="spring boot starter data mongodb" style="whiteSpace=wrap;html=1;fillColor=#f5f5f5;strokeColor=#666666;rounded=1;fontColor=#333333;" parent="MktRiLjFBEHnHrvTIdCx-68" vertex="1">
          <mxGeometry x="10" y="24.5" width="130" height="29.03" as="geometry" />
        </mxCell>
        <mxCell id="MktRiLjFBEHnHrvTIdCx-79" value="vocabulary" style="rounded=1;whiteSpace=wrap;html=1;fillColor=#d5e8d4;strokeColor=#82b366;" parent="1" vertex="1">
          <mxGeometry x="95.5" y="1174.12" width="90" height="30" as="geometry" />
        </mxCell>
        <mxCell id="MktRiLjFBEHnHrvTIdCx-86" value="" style="group" parent="1" connectable="0" vertex="1">
          <mxGeometry x="225.5" y="957.06" width="100" height="53.52999999999997" as="geometry" />
        </mxCell>
        <mxCell id="MktRiLjFBEHnHrvTIdCx-87" value="" style="sketch=0;pointerEvents=1;shadow=0;dashed=0;html=1;strokeColor=none;labelPosition=center;verticalLabelPosition=bottom;verticalAlign=top;align=center;fillColor=#505050;shape=mxgraph.mscae.oms.dependency_monitor" parent="MktRiLjFBEHnHrvTIdCx-86" vertex="1">
          <mxGeometry width="35.2" height="34.5" as="geometry" />
        </mxCell>
        <mxCell id="MktRiLjFBEHnHrvTIdCx-88" value="google guava" style="whiteSpace=wrap;html=1;fillColor=#f5f5f5;strokeColor=#666666;rounded=1;fontColor=#333333;" parent="MktRiLjFBEHnHrvTIdCx-86" vertex="1">
          <mxGeometry x="10" y="24.5" width="90" height="29.03" as="geometry" />
        </mxCell>
        <mxCell id="MktRiLjFBEHnHrvTIdCx-129" style="rounded=0;orthogonalLoop=1;jettySize=auto;html=1;exitX=0.25;exitY=0;exitDx=0;exitDy=0;entryX=0.75;entryY=1;entryDx=0;entryDy=0;" parent="1" source="MktRiLjFBEHnHrvTIdCx-104" target="MktRiLjFBEHnHrvTIdCx-111" edge="1">
          <mxGeometry relative="1" as="geometry" />
        </mxCell>
        <mxCell id="MktRiLjFBEHnHrvTIdCx-130" style="rounded=0;orthogonalLoop=1;jettySize=auto;html=1;exitX=0.5;exitY=0;exitDx=0;exitDy=0;entryX=0.5;entryY=1;entryDx=0;entryDy=0;" parent="1" source="MktRiLjFBEHnHrvTIdCx-104" target="MktRiLjFBEHnHrvTIdCx-114" edge="1">
          <mxGeometry relative="1" as="geometry" />
        </mxCell>
        <mxCell id="MktRiLjFBEHnHrvTIdCx-134" style="rounded=0;orthogonalLoop=1;jettySize=auto;html=1;exitX=0.75;exitY=0;exitDx=0;exitDy=0;entryX=0.25;entryY=1;entryDx=0;entryDy=0;" parent="1" source="MktRiLjFBEHnHrvTIdCx-104" target="MktRiLjFBEHnHrvTIdCx-127" edge="1">
          <mxGeometry relative="1" as="geometry" />
        </mxCell>
        <mxCell id="MktRiLjFBEHnHrvTIdCx-135" style="rounded=0;orthogonalLoop=1;jettySize=auto;html=1;exitX=0.5;exitY=1;exitDx=0;exitDy=0;entryX=0.5;entryY=0;entryDx=0;entryDy=0;" parent="1" source="MktRiLjFBEHnHrvTIdCx-104" target="MktRiLjFBEHnHrvTIdCx-105" edge="1">
          <mxGeometry relative="1" as="geometry" />
        </mxCell>
        <mxCell id="MktRiLjFBEHnHrvTIdCx-184" style="rounded=0;orthogonalLoop=1;jettySize=auto;html=1;exitX=0.5;exitY=1;exitDx=0;exitDy=0;entryX=0.5;entryY=0;entryDx=0;entryDy=0;" parent="1" source="MktRiLjFBEHnHrvTIdCx-104" target="MktRiLjFBEHnHrvTIdCx-183" edge="1">
          <mxGeometry relative="1" as="geometry" />
        </mxCell>
        <mxCell id="MktRiLjFBEHnHrvTIdCx-104" value="webapp" style="rounded=1;whiteSpace=wrap;html=1;fillColor=#ffe6cc;strokeColor=#d79b00;" parent="1" vertex="1">
          <mxGeometry x="128" y="1443.5300000000002" width="110" height="60" as="geometry" />
        </mxCell>
        <mxCell id="MktRiLjFBEHnHrvTIdCx-105" value="business" style="whiteSpace=wrap;html=1;fillColor=#dae8fc;strokeColor=#6c8ebf;rounded=1;" parent="1" vertex="1">
          <mxGeometry x="76.5" y="1545.7000000000003" width="90" height="29.03" as="geometry" />
        </mxCell>
        <mxCell id="MktRiLjFBEHnHrvTIdCx-109" value="" style="group" parent="1" connectable="0" vertex="1">
          <mxGeometry x="54.5" y="1344.14" width="100" height="53.52999999999997" as="geometry" />
        </mxCell>
        <mxCell id="MktRiLjFBEHnHrvTIdCx-110" value="" style="sketch=0;pointerEvents=1;shadow=0;dashed=0;html=1;strokeColor=none;labelPosition=center;verticalLabelPosition=bottom;verticalAlign=top;align=center;fillColor=#505050;shape=mxgraph.mscae.oms.dependency_monitor" parent="MktRiLjFBEHnHrvTIdCx-109" vertex="1">
          <mxGeometry width="35.2" height="34.5" as="geometry" />
        </mxCell>
        <mxCell id="MktRiLjFBEHnHrvTIdCx-111" value="spring boot devtools" style="whiteSpace=wrap;html=1;fillColor=#f5f5f5;strokeColor=#666666;rounded=1;fontColor=#333333;" parent="MktRiLjFBEHnHrvTIdCx-109" vertex="1">
          <mxGeometry x="10" y="24.5" width="90" height="29.03" as="geometry" />
        </mxCell>
        <mxCell id="MktRiLjFBEHnHrvTIdCx-112" value="" style="group" parent="1" connectable="0" vertex="1">
          <mxGeometry x="128" y="1290" width="100" height="53.52999999999997" as="geometry" />
        </mxCell>
        <mxCell id="MktRiLjFBEHnHrvTIdCx-113" value="" style="sketch=0;pointerEvents=1;shadow=0;dashed=0;html=1;strokeColor=none;labelPosition=center;verticalLabelPosition=bottom;verticalAlign=top;align=center;fillColor=#505050;shape=mxgraph.mscae.oms.dependency_monitor" parent="MktRiLjFBEHnHrvTIdCx-112" vertex="1">
          <mxGeometry width="35.2" height="34.5" as="geometry" />
        </mxCell>
        <mxCell id="MktRiLjFBEHnHrvTIdCx-114" value="spring boot starter web" style="whiteSpace=wrap;html=1;fillColor=#f5f5f5;strokeColor=#666666;rounded=1;fontColor=#333333;" parent="MktRiLjFBEHnHrvTIdCx-112" vertex="1">
          <mxGeometry x="10" y="24.5" width="90" height="29.03" as="geometry" />
        </mxCell>
        <mxCell id="MktRiLjFBEHnHrvTIdCx-125" value="" style="group" parent="1" connectable="0" vertex="1">
          <mxGeometry x="210" y="1360" width="100" height="53.52999999999997" as="geometry" />
        </mxCell>
        <mxCell id="MktRiLjFBEHnHrvTIdCx-126" value="" style="sketch=0;pointerEvents=1;shadow=0;dashed=0;html=1;strokeColor=none;labelPosition=center;verticalLabelPosition=bottom;verticalAlign=top;align=center;fillColor=#505050;shape=mxgraph.mscae.oms.dependency_monitor" parent="MktRiLjFBEHnHrvTIdCx-125" vertex="1">
          <mxGeometry width="35.2" height="34.5" as="geometry" />
        </mxCell>
        <mxCell id="MktRiLjFBEHnHrvTIdCx-127" value="google guava" style="whiteSpace=wrap;html=1;fillColor=#f5f5f5;strokeColor=#666666;rounded=1;fontColor=#333333;" parent="MktRiLjFBEHnHrvTIdCx-125" vertex="1">
          <mxGeometry x="10" y="24.5" width="90" height="29.03" as="geometry" />
        </mxCell>
        <mxCell id="MktRiLjFBEHnHrvTIdCx-154" style="rounded=0;orthogonalLoop=1;jettySize=auto;html=1;exitX=0.5;exitY=1;exitDx=0;exitDy=0;entryX=0.5;entryY=0;entryDx=0;entryDy=0;" parent="1" source="MktRiLjFBEHnHrvTIdCx-136" target="MktRiLjFBEHnHrvTIdCx-138" edge="1">
          <mxGeometry relative="1" as="geometry" />
        </mxCell>
        <mxCell id="MktRiLjFBEHnHrvTIdCx-155" style="rounded=0;orthogonalLoop=1;jettySize=auto;html=1;exitX=0.5;exitY=1;exitDx=0;exitDy=0;entryX=0.5;entryY=0;entryDx=0;entryDy=0;" parent="1" source="MktRiLjFBEHnHrvTIdCx-136" target="MktRiLjFBEHnHrvTIdCx-152" edge="1">
          <mxGeometry relative="1" as="geometry" />
        </mxCell>
        <mxCell id="MktRiLjFBEHnHrvTIdCx-176" style="rounded=0;orthogonalLoop=1;jettySize=auto;html=1;exitX=0.155;exitY=-0.001;exitDx=0;exitDy=0;entryX=0.75;entryY=1;entryDx=0;entryDy=0;exitPerimeter=0;" parent="1" source="MktRiLjFBEHnHrvTIdCx-136" target="MktRiLjFBEHnHrvTIdCx-148" edge="1">
          <mxGeometry relative="1" as="geometry" />
        </mxCell>
        <mxCell id="MktRiLjFBEHnHrvTIdCx-180" style="rounded=0;orthogonalLoop=1;jettySize=auto;html=1;exitX=0.5;exitY=0;exitDx=0;exitDy=0;entryX=0.5;entryY=1;entryDx=0;entryDy=0;" parent="1" source="MktRiLjFBEHnHrvTIdCx-136" target="MktRiLjFBEHnHrvTIdCx-151" edge="1">
          <mxGeometry relative="1" as="geometry" />
        </mxCell>
        <mxCell id="MktRiLjFBEHnHrvTIdCx-182" style="rounded=0;orthogonalLoop=1;jettySize=auto;html=1;exitX=0.75;exitY=0;exitDx=0;exitDy=0;" parent="1" source="MktRiLjFBEHnHrvTIdCx-136" edge="1">
          <mxGeometry relative="1" as="geometry">
            <mxPoint x="598" y="1063.06" as="targetPoint" />
          </mxGeometry>
        </mxCell>
        <mxCell id="MktRiLjFBEHnHrvTIdCx-136" value="CLI" style="rounded=1;whiteSpace=wrap;html=1;fillColor=#ffe6cc;strokeColor=#d79b00;" parent="1" vertex="1">
          <mxGeometry x="491.5" y="1080.5000000000002" width="110" height="60" as="geometry" />
        </mxCell>
        <mxCell id="MktRiLjFBEHnHrvTIdCx-138" value="business" style="whiteSpace=wrap;html=1;fillColor=#dae8fc;strokeColor=#6c8ebf;rounded=1;" parent="1" vertex="1">
          <mxGeometry x="442.5" y="1183.5000000000002" width="90" height="29.03" as="geometry" />
        </mxCell>
        <mxCell id="MktRiLjFBEHnHrvTIdCx-146" value="" style="group" parent="1" connectable="0" vertex="1">
          <mxGeometry x="418" y="1006.9700000000005" width="100" height="53.52999999999997" as="geometry" />
        </mxCell>
        <mxCell id="MktRiLjFBEHnHrvTIdCx-147" value="" style="sketch=0;pointerEvents=1;shadow=0;dashed=0;html=1;strokeColor=none;labelPosition=center;verticalLabelPosition=bottom;verticalAlign=top;align=center;fillColor=#505050;shape=mxgraph.mscae.oms.dependency_monitor" parent="MktRiLjFBEHnHrvTIdCx-146" vertex="1">
          <mxGeometry width="35.2" height="34.5" as="geometry" />
        </mxCell>
        <mxCell id="MktRiLjFBEHnHrvTIdCx-148" value="spring boot starter web" style="whiteSpace=wrap;html=1;fillColor=#f5f5f5;strokeColor=#666666;rounded=1;fontColor=#333333;" parent="MktRiLjFBEHnHrvTIdCx-146" vertex="1">
          <mxGeometry x="10" y="24.5" width="90" height="29.03" as="geometry" />
        </mxCell>
        <mxCell id="MktRiLjFBEHnHrvTIdCx-149" value="" style="group" parent="1" connectable="0" vertex="1">
          <mxGeometry x="448" y="957.85" width="140" height="53.53" as="geometry" />
        </mxCell>
        <mxCell id="MktRiLjFBEHnHrvTIdCx-150" value="" style="sketch=0;pointerEvents=1;shadow=0;dashed=0;html=1;strokeColor=none;labelPosition=center;verticalLabelPosition=bottom;verticalAlign=top;align=center;fillColor=#505050;shape=mxgraph.mscae.oms.dependency_monitor" parent="MktRiLjFBEHnHrvTIdCx-149" vertex="1">
          <mxGeometry width="35.2" height="34.5" as="geometry" />
        </mxCell>
        <mxCell id="MktRiLjFBEHnHrvTIdCx-151" value="spring boot starter data mongodb" style="whiteSpace=wrap;html=1;fillColor=#f5f5f5;strokeColor=#666666;rounded=1;fontColor=#333333;" parent="MktRiLjFBEHnHrvTIdCx-149" vertex="1">
          <mxGeometry x="10" y="24.5" width="130" height="29.03" as="geometry" />
        </mxCell>
        <mxCell id="MktRiLjFBEHnHrvTIdCx-152" value="vocabulary" style="rounded=1;whiteSpace=wrap;html=1;fillColor=#d5e8d4;strokeColor=#82b366;" parent="1" vertex="1">
          <mxGeometry x="553.5" y="1182.53" width="90" height="30" as="geometry" />
        </mxCell>
        <mxCell id="MktRiLjFBEHnHrvTIdCx-166" value="" style="group" parent="1" connectable="0" vertex="1">
          <mxGeometry x="588" y="1006.97" width="100" height="53.52999999999997" as="geometry" />
        </mxCell>
        <mxCell id="MktRiLjFBEHnHrvTIdCx-167" value="" style="sketch=0;pointerEvents=1;shadow=0;dashed=0;html=1;strokeColor=none;labelPosition=center;verticalLabelPosition=bottom;verticalAlign=top;align=center;fillColor=#505050;shape=mxgraph.mscae.oms.dependency_monitor" parent="MktRiLjFBEHnHrvTIdCx-166" vertex="1">
          <mxGeometry width="35.2" height="34.5" as="geometry" />
        </mxCell>
        <mxCell id="MktRiLjFBEHnHrvTIdCx-168" value="google guava" style="whiteSpace=wrap;html=1;fillColor=#f5f5f5;strokeColor=#666666;rounded=1;fontColor=#333333;" parent="MktRiLjFBEHnHrvTIdCx-166" vertex="1">
          <mxGeometry x="10" y="24.5" width="90" height="29.03" as="geometry" />
        </mxCell>
        <mxCell id="MktRiLjFBEHnHrvTIdCx-183" value="vocabulary" style="rounded=1;whiteSpace=wrap;html=1;fillColor=#d5e8d4;strokeColor=#82b366;" parent="1" vertex="1">
          <mxGeometry x="195.5" y="1545.7" width="90" height="30" as="geometry" />
        </mxCell>
        <mxCell id="MktRiLjFBEHnHrvTIdCx-220" style="rounded=0;orthogonalLoop=1;jettySize=auto;html=1;exitX=0.25;exitY=0;exitDx=0;exitDy=0;entryX=0.75;entryY=1;entryDx=0;entryDy=0;" parent="1" source="MktRiLjFBEHnHrvTIdCx-185" target="MktRiLjFBEHnHrvTIdCx-191" edge="1">
          <mxGeometry relative="1" as="geometry" />
        </mxCell>
        <mxCell id="MktRiLjFBEHnHrvTIdCx-221" style="rounded=0;orthogonalLoop=1;jettySize=auto;html=1;exitX=0.5;exitY=1;exitDx=0;exitDy=0;entryX=0.5;entryY=0;entryDx=0;entryDy=0;" parent="1" source="MktRiLjFBEHnHrvTIdCx-185" target="MktRiLjFBEHnHrvTIdCx-204" edge="1">
          <mxGeometry relative="1" as="geometry" />
        </mxCell>
        <mxCell id="MktRiLjFBEHnHrvTIdCx-222" style="rounded=0;orthogonalLoop=1;jettySize=auto;html=1;exitX=0.5;exitY=0;exitDx=0;exitDy=0;entryX=0.5;entryY=1;entryDx=0;entryDy=0;" parent="1" source="MktRiLjFBEHnHrvTIdCx-185" target="MktRiLjFBEHnHrvTIdCx-188" edge="1">
          <mxGeometry relative="1" as="geometry" />
        </mxCell>
        <mxCell id="MktRiLjFBEHnHrvTIdCx-230" style="rounded=0;orthogonalLoop=1;jettySize=auto;html=1;exitX=0.75;exitY=0;exitDx=0;exitDy=0;entryX=0.25;entryY=1;entryDx=0;entryDy=0;" parent="1" source="MktRiLjFBEHnHrvTIdCx-185" target="MktRiLjFBEHnHrvTIdCx-219" edge="1">
          <mxGeometry relative="1" as="geometry" />
        </mxCell>
        <mxCell id="MktRiLjFBEHnHrvTIdCx-185" value="business" style="rounded=1;whiteSpace=wrap;html=1;fillColor=#dae8fc;strokeColor=#6c8ebf;" parent="1" vertex="1">
          <mxGeometry x="681.5" y="764.0000000000001" width="110" height="60" as="geometry" />
        </mxCell>
        <mxCell id="MktRiLjFBEHnHrvTIdCx-186" value="" style="group" parent="1" connectable="0" vertex="1">
          <mxGeometry x="691.5" y="637.47" width="100" height="53.52999999999997" as="geometry" />
        </mxCell>
        <mxCell id="MktRiLjFBEHnHrvTIdCx-187" value="" style="sketch=0;pointerEvents=1;shadow=0;dashed=0;html=1;strokeColor=none;labelPosition=center;verticalLabelPosition=bottom;verticalAlign=top;align=center;fillColor=#505050;shape=mxgraph.mscae.oms.dependency_monitor" parent="MktRiLjFBEHnHrvTIdCx-186" vertex="1">
          <mxGeometry width="35.2" height="34.5" as="geometry" />
        </mxCell>
        <mxCell id="MktRiLjFBEHnHrvTIdCx-188" value="log4j-api" style="whiteSpace=wrap;html=1;fillColor=#f5f5f5;strokeColor=#666666;rounded=1;fontColor=#333333;" parent="MktRiLjFBEHnHrvTIdCx-186" vertex="1">
          <mxGeometry x="10" y="24.5" width="90" height="29.03" as="geometry" />
        </mxCell>
        <mxCell id="MktRiLjFBEHnHrvTIdCx-189" value="" style="group" parent="1" connectable="0" vertex="1">
          <mxGeometry x="601.5" y="677.4700000000001" width="100" height="53.52999999999997" as="geometry" />
        </mxCell>
        <mxCell id="MktRiLjFBEHnHrvTIdCx-190" value="" style="sketch=0;pointerEvents=1;shadow=0;dashed=0;html=1;strokeColor=none;labelPosition=center;verticalLabelPosition=bottom;verticalAlign=top;align=center;fillColor=#505050;shape=mxgraph.mscae.oms.dependency_monitor" parent="MktRiLjFBEHnHrvTIdCx-189" vertex="1">
          <mxGeometry width="35.2" height="34.5" as="geometry" />
        </mxCell>
        <mxCell id="MktRiLjFBEHnHrvTIdCx-191" value="log4j-core" style="whiteSpace=wrap;html=1;fillColor=#f5f5f5;strokeColor=#666666;rounded=1;fontColor=#333333;" parent="MktRiLjFBEHnHrvTIdCx-189" vertex="1">
          <mxGeometry x="10" y="24.5" width="90" height="29.03" as="geometry" />
        </mxCell>
        <mxCell id="MktRiLjFBEHnHrvTIdCx-204" value="vocabulary" style="rounded=1;whiteSpace=wrap;html=1;fillColor=#d5e8d4;strokeColor=#82b366;" parent="1" vertex="1">
          <mxGeometry x="691.5" y="865.2000000000002" width="90" height="30" as="geometry" />
        </mxCell>
        <mxCell id="MktRiLjFBEHnHrvTIdCx-217" value="" style="group" parent="1" connectable="0" vertex="1">
          <mxGeometry x="761.5" y="696.5000000000001" width="100" height="53.52999999999997" as="geometry" />
        </mxCell>
        <mxCell id="MktRiLjFBEHnHrvTIdCx-218" value="" style="sketch=0;pointerEvents=1;shadow=0;dashed=0;html=1;strokeColor=none;labelPosition=center;verticalLabelPosition=bottom;verticalAlign=top;align=center;fillColor=#505050;shape=mxgraph.mscae.oms.dependency_monitor" parent="MktRiLjFBEHnHrvTIdCx-217" vertex="1">
          <mxGeometry width="35.2" height="34.5" as="geometry" />
        </mxCell>
        <mxCell id="MktRiLjFBEHnHrvTIdCx-219" value="google guava" style="whiteSpace=wrap;html=1;fillColor=#f5f5f5;strokeColor=#666666;rounded=1;fontColor=#333333;" parent="MktRiLjFBEHnHrvTIdCx-217" vertex="1">
          <mxGeometry x="10" y="24.5" width="90" height="29.03" as="geometry" />
        </mxCell>
        <mxCell id="MktRiLjFBEHnHrvTIdCx-249" style="rounded=0;orthogonalLoop=1;jettySize=auto;html=1;entryX=0.5;entryY=1;entryDx=0;entryDy=0;exitX=0.5;exitY=0;exitDx=0;exitDy=0;" parent="1" source="MktRiLjFBEHnHrvTIdCx-231" target="MktRiLjFBEHnHrvTIdCx-246" edge="1">
          <mxGeometry relative="1" as="geometry">
            <mxPoint x="550" y="1460" as="sourcePoint" />
          </mxGeometry>
        </mxCell>
        <mxCell id="MktRiLjFBEHnHrvTIdCx-231" value="vocabulary" style="rounded=1;whiteSpace=wrap;html=1;fillColor=#d5e8d4;strokeColor=#82b366;" parent="1" vertex="1">
          <mxGeometry x="491.5" y="1473.5300000000002" width="110" height="60" as="geometry" />
        </mxCell>
        <mxCell id="MktRiLjFBEHnHrvTIdCx-244" value="" style="group" parent="1" connectable="0" vertex="1">
          <mxGeometry x="491.5" y="1360" width="100" height="53.52999999999997" as="geometry" />
        </mxCell>
        <mxCell id="MktRiLjFBEHnHrvTIdCx-245" value="" style="sketch=0;pointerEvents=1;shadow=0;dashed=0;html=1;strokeColor=none;labelPosition=center;verticalLabelPosition=bottom;verticalAlign=top;align=center;fillColor=#505050;shape=mxgraph.mscae.oms.dependency_monitor" parent="MktRiLjFBEHnHrvTIdCx-244" vertex="1">
          <mxGeometry width="35.2" height="34.5" as="geometry" />
        </mxCell>
        <mxCell id="MktRiLjFBEHnHrvTIdCx-246" value="google guava" style="whiteSpace=wrap;html=1;fillColor=#f5f5f5;strokeColor=#666666;rounded=1;fontColor=#333333;" parent="MktRiLjFBEHnHrvTIdCx-244" vertex="1">
          <mxGeometry x="10" y="24.5" width="90" height="29.03" as="geometry" />
        </mxCell>
      </root>
    </mxGraphModel>
  </diagram>
</mxfile>
